<?xml version="1.0" encoding="UTF-8" standalone="no"?>
<!-- Created with Inkscape (http://www.inkscape.org/) -->

<svg
   version="1.1"
   id="svg2"
   width="589.88"
   height="143.52"
   viewBox="0 0 589.88 143.52"
   sodipodi:docname="archer2_cmyk.eps"
   xmlns:inkscape="http://www.inkscape.org/namespaces/inkscape"
   xmlns:sodipodi="http://sodipodi.sourceforge.net/DTD/sodipodi-0.dtd"
   xmlns="http://www.w3.org/2000/svg"
   xmlns:svg="http://www.w3.org/2000/svg">
  <defs
     id="defs6" />
  <sodipodi:namedview
     id="namedview4"
     pagecolor="#ffffff"
     bordercolor="#000000"
     borderopacity="0.25"
     inkscape:showpageshadow="2"
     inkscape:pageopacity="0.0"
     inkscape:pagecheckerboard="0"
     inkscape:deskcolor="#d1d1d1" />
  <g
     id="g8"
     inkscape:groupmode="layer"
     inkscape:label="ink_ext_XXXXXX"
     transform="matrix(1.3333333,0,0,-1.3333333,0,143.52)">
    <g
       id="g10"
       transform="scale(0.1)">
      <path
         d="M 4244.39,991.824 H 982.672 C 1100.27,876.496 1173.33,715.855 1173.33,538.102 1173.33,347.324 1089.11,176.293 955.953,59.8281 H 4244.39 c 99.29,0 179.76,64.6409 179.76,144.3559 v 643.269 c 0,79.735 -80.47,144.371 -179.76,144.371"
         style="fill:#25295d;fill-opacity:1;fill-rule:nonzero;stroke:none"
         id="path12" />
      <path
         d="M 538.199,1076.38 C 241.027,1076.38 0,835.352 0,538.121 0,240.93 241.027,0 538.199,0 c 297.137,0 537.991,240.93 537.991,538.121 0,297.231 -240.854,538.259 -537.991,538.259 m -0.054,-966.896 c -236.629,0 -428.676,191.914 -428.676,428.563 0,236.82 192.047,428.844 428.676,428.844 236.683,0 428.578,-192.024 428.578,-428.844 0,-236.649 -191.895,-428.563 -428.578,-428.563"
         style="fill:#59c59c;fill-opacity:1;fill-rule:nonzero;stroke:none"
         id="path14" />
      <path
         d="m 538.129,866.016 c -181,0 -327.793,-146.828 -327.793,-327.868 0,-181.019 146.793,-327.773 327.793,-327.773 181.039,0 327.754,146.754 327.754,327.773 0,181.04 -146.715,327.868 -327.754,327.868 m 0,-545.828 c -120.344,0 -218.016,97.582 -218.016,217.96 0,120.399 97.672,218.051 218.016,218.051 120.34,0 217.937,-97.652 217.937,-218.051 0,-120.378 -97.597,-217.96 -217.937,-217.96"
         style="fill:#5fc452;fill-opacity:1;fill-rule:nonzero;stroke:none"
         id="path16" />
      <path
         d="m 663.926,538.176 c 0,-69.496 -56.34,-125.817 -125.817,-125.817 -69.496,0 -125.812,56.321 -125.812,125.817 0,69.496 56.316,125.851 125.812,125.851 69.477,0 125.817,-56.355 125.817,-125.851"
         style="fill:#25295d;fill-opacity:1;fill-rule:nonzero;stroke:none"
         id="path18" />
      <path
         d="m 1617.41,373.57 h -1.11 c -12.87,-25.742 -27.97,-33 -101.81,-33 H 1399.3 c -72.72,0 -91.74,31.883 -91.74,85.575 v 19.015 c 0,64.887 45.87,72.703 129.77,72.703 h 77.16 c 62.66,0 85.04,-6.703 101.81,-34.113 h 1.11 v 53.703 c 0,51.442 -32.44,58.145 -106.28,58.145 h -70.45 c -60.41,0 -72.15,-14.52 -72.15,-38.012 V 547.5 h -48.1 v 14.004 c 0,52 33,73.262 119.13,73.262 h 76.07 c 89.49,0 149.88,-13.426 149.88,-98.446 V 345.047 h -48.1 z m 0,60.965 c 0,39.149 -34.67,44.18 -108.49,44.18 h -73.81 c -62.09,0 -79.45,-8.93 -79.45,-44.735 v -8.953 c 0,-31.882 11.2,-45.312 77.2,-45.312 h 63.75 c 87.25,0 120.8,6.168 120.8,41.953 v 12.867"
         style="fill:#ffffff;fill-opacity:1;fill-rule:nonzero;stroke:none"
         id="path20" />
      <path
         d="m 1720.86,630.289 h 44.73 v -41.394 h 1.12 c 17.9,36.918 54.26,45.867 87.26,45.867 h 45.31 c 90.03,0 119.67,-29.078 119.67,-99 v -34.114 h -44.73 v 12.293 c 0,70.477 -14.55,81.676 -100.12,81.676 h -29.64 c -50.9,0 -75.52,-32.441 -75.52,-69.363 V 345.043 h -48.08 v 285.246"
         style="fill:#ffffff;fill-opacity:1;fill-rule:nonzero;stroke:none"
         id="path22" />
      <path
         d="m 2063.11,519.547 c 0,103.473 72.7,115.211 143.18,115.211 h 80.54 c 89.49,0 124.72,-36.363 124.72,-96.754 v -7.836 h -44.74 v 6.723 c 0,47.539 -31.33,58.718 -79.43,58.718 h -88.36 c -45.31,0 -87.82,-6.722 -87.82,-77.734 V 458.02 c 0,-63.75 39.17,-78.293 97.33,-78.293 h 81.1 c 44.76,0 82.21,13.425 82.21,59.836 v 9.507 h 44.74 v -8.375 c 0,-72.168 -35.81,-100.132 -125.28,-100.132 h -108.51 c -43.06,0 -119.68,11.753 -119.68,115.23 v 63.754"
         style="fill:#ffffff;fill-opacity:1;fill-rule:nonzero;stroke:none"
         id="path24" />
      <path
         d="m 2490.37,749.977 h 48.08 V 581.059 h 1.13 c 17.9,44.195 55.38,53.703 115.21,53.703 h 68.79 c 90.07,0 118.59,-45.313 118.59,-96.75 V 345.043 h -48.1 v 181.211 c 0,41.953 -11.73,69.344 -105.14,69.344 h -12.32 c -112.4,0 -138.16,-21.227 -138.16,-88.36 V 345.043 h -48.08 v 404.934"
         style="fill:#ffffff;fill-opacity:1;fill-rule:nonzero;stroke:none"
         id="path26" />
      <path
         d="m 2897.48,519.551 c 0,103.472 71.59,115.211 139.82,115.211 h 77.2 c 86.13,0 148.19,-21.801 148.19,-123.606 v -31.867 h -317.11 v -17.902 c 0,-64.867 31.33,-81.676 115.23,-81.676 h 66 c 60.4,0 84.98,7.855 87.79,51.461 h 48.09 v -5.59 c 0,-65.426 -54.24,-85.016 -143.73,-85.016 h -87.25 c -62.64,0 -134.23,11.754 -134.23,116.903 z m 317.12,17.902 c 0,29.078 -21.81,58.16 -100.1,58.16 h -70.47 c -76.07,0 -93.97,-12.312 -98.45,-77.179 h 269.02 v 19.019"
         style="fill:#ffffff;fill-opacity:1;fill-rule:nonzero;stroke:none"
         id="path28" />
      <path
         d="m 3319.71,630.289 h 44.74 v -41.394 h 1.11 c 17.9,36.918 54.27,45.867 87.27,45.867 h 45.31 c 90.03,0 119.67,-29.078 119.67,-99 v -34.114 h -44.74 v 12.293 c 0,70.477 -14.54,81.676 -100.11,81.676 h -29.64 c -50.9,0 -75.53,-32.441 -75.53,-69.363 V 345.043 h -48.08 v 285.246"
         style="fill:#ffffff;fill-opacity:1;fill-rule:nonzero;stroke:none"
         id="path30" />
      <path
         d="m 3706.46,417.688 c 0,89.585 43.66,112.828 136.63,119.628 l 182.57,13.043 c 79.95,5.688 86.77,26.086 86.77,78.254 0,59.528 -12.47,86.172 -86.19,86.172 h -172.36 c -58.97,0 -93.56,-6.226 -93.56,-87.879 v -22.668 h -52.15 v 38.551 c 0,86.172 47.06,117.348 144,117.348 h 173.49 c 117.94,0 138.92,-53.285 138.92,-134.364 0,-109.429 -41.38,-116.23 -176.33,-125.296 l -85.04,-5.668 c -130.41,-8.508 -144.58,-13.618 -144.58,-68.055 v -36.285 h 411.63 v -45.352 h -463.8 v 72.571"
         style="fill:#59c59c;fill-opacity:1;fill-rule:nonzero;stroke:none"
         id="path32" />
    </g>
  </g>
</svg>
